<svg aria-hidden="true" style="position: absolute; width: 0; height: 0; overflow: hidden;" version="1.1" xmlns="http://www.w3.org/2000/svg" xmlns:xlink="http://www.w3.org/1999/xlink">
<defs>
<symbol id="icon-search" viewBox="0 0 32 32">
<path d="M32 30.326l-8.939-8.939c2.148-2.579 3.219-5.886 2.991-9.235s-1.739-6.48-4.218-8.743c-2.479-2.263-5.734-3.483-9.089-3.407s-6.552 1.443-8.925 3.816c-2.373 2.373-3.74 5.57-3.816 8.925s1.144 6.611 3.407 9.089c2.263 2.478 5.394 3.989 8.743 4.218s6.656-0.843 9.235-2.991l8.939 8.939 1.674-1.674zM2.41 13.062c0-2.107 0.625-4.166 1.795-5.918s2.834-3.117 4.781-3.923c1.947-0.806 4.088-1.017 6.155-0.606s3.964 1.426 5.454 2.915c1.49 1.49 2.504 3.388 2.915 5.454s0.2 4.208-0.606 6.155c-0.806 1.946-2.172 3.61-3.924 4.781s-3.811 1.795-5.918 1.795c-2.824-0.003-5.532-1.127-7.529-3.124s-3.12-4.705-3.124-7.529z"></path>
</symbol>
</defs>
</svg>


